# xmcd
#
# Track frame offsets:
#	150
#	7684
#	20520
#	38099
#	49413
#
# Disc length: 945 seconds
#
# Revision: 1
# Processed by: cddbd v1.5.1PL0 Copyright (c) Steve Scherf et al.
# Submitted via: audiograbber 1.81.03
#
DISCID=3003af05
DTITLE=Benj`Rowland - Benj`Rowland
DYEAR=2005
DGENRE=Country
TTITLE0=Alberta Rose
TTITLE1=People On the Street
TTITLE2=Lullaby For Drunk
TTITLE3=When Springtime Comes
TTITLE4=Gone Away From Us
EXTD=
EXTT0=
EXTT1=
EXTT2=
EXTT3=
EXTT4=
PLAYORDER=
